<?xml version="1.0" encoding="UTF-8"?>
<svg version="1.1" xmlns="http://www.w3.org/2000/svg" width="1254" height="1254">
<path d="M0 0 C413.82 0 827.64 0 1254 0 C1254 413.82 1254 827.64 1254 1254 C840.18 1254 426.36 1254 0 1254 C0 840.18 0 426.36 0 0 Z " fill="#010205" transform="translate(0,0)"/>
<path d="M0 0 C30.79532026 -0.04558829 61.59063283 -0.08100026 92.38597875 -0.10213066 C96.01854969 -0.10463219 99.65112057 -0.10722082 103.28369141 -0.10986328 C104.00689556 -0.1103879 104.73009971 -0.11091252 105.47521915 -0.11145304 C117.19769086 -0.12016457 128.92014304 -0.13593864 140.64260314 -0.15430559 C152.6636835 -0.17298386 164.68475359 -0.18411232 176.70584786 -0.18817699 C183.46095924 -0.19067916 190.21602981 -0.19671605 196.97112656 -0.21146011 C203.32231276 -0.22498123 209.67343608 -0.22923378 216.02463531 -0.22621536 C218.3620068 -0.22676799 220.69938027 -0.23077784 223.03673935 -0.23841095 C226.21531657 -0.24828665 229.3936529 -0.24599601 232.57223511 -0.24050903 C233.50801891 -0.24633472 234.44380272 -0.2521604 235.40794361 -0.25816262 C236.67838935 -0.25218947 236.67838935 -0.25218947 237.97450066 -0.24609566 C238.70887977 -0.2468551 239.44325889 -0.24761454 240.19989192 -0.24839699 C242 0 242 0 244 2 C244.25 5.5 244.25 5.5 244 9 C241.64730768 11.35269232 241.18060639 11.25442674 237.9921875 11.30859375 C236.7710022 11.34303589 236.7710022 11.34303589 235.52514648 11.37817383 C234.21332397 11.40754028 234.21332397 11.40754028 232.875 11.4375 C215.65644958 12.07304775 195.94256843 14.51079599 182.92578125 26.98828125 C181.18038745 28.93126681 179.56656238 30.91125016 178 33 C177.4225 33.763125 176.845 34.52625 176.25 35.3125 C169.53831584 49.74262093 169.70292461 66.29524421 169.73257446 81.86723328 C169.72883132 83.7466857 169.72422717 85.62613657 169.71884382 87.50558501 C169.70668068 92.63640819 169.70686634 97.76716584 169.70923257 102.89800012 C169.70964243 108.44487332 169.69858554 113.99172597 169.68911743 119.53858948 C169.67254361 130.39300005 169.66700954 141.2473889 169.66589268 152.10181107 C169.66494056 160.92902538 169.66082213 169.75623255 169.65449142 178.5834446 C169.63975068 199.56578226 169.62744061 220.54811607 169.62848854 241.5304594 C169.6285197 242.20054031 169.62855086 242.87062121 169.62858296 243.5610076 C169.62874916 246.95677121 169.62894724 250.35253482 169.62915237 253.74829843 C169.62919226 254.42263341 169.62923215 255.09696839 169.62927325 255.79173776 C169.62935413 257.15540549 169.62943772 258.51907322 169.62952404 259.88274095 C169.63074915 281.09234626 169.61573914 302.30188759 169.58837891 323.51147461 C169.55760705 347.3752138 169.54047476 371.2389113 169.54230535 395.10267574 C169.54296814 407.72504734 169.53752455 420.34734677 169.51594925 432.96970177 C169.49769669 443.71652767 169.49342363 454.46324866 169.5069681 465.21008339 C169.51347691 470.68690362 169.51369057 476.16352281 169.4962616 481.64032364 C169.48043347 486.66601348 169.48349304 491.69134449 169.50082986 496.71702609 C169.50387842 498.52312648 169.50034954 500.32925431 169.48910971 502.1353223 C169.43530781 511.40343033 169.93826044 520.24070159 171.78090477 529.34388447 C171.9359352 530.12482985 172.09096563 530.90577524 172.25069395 531.71038563 C173.82280675 538.71667354 176.87577909 544.00594288 183 548 C188.66527254 551.0942854 194.40203872 552.38256223 200.77636719 553.1027832 C201.51868969 553.18763883 202.26101219 553.27249445 203.02582932 553.35992146 C211.12888778 554.21700431 219.18840282 554.27167429 227.328125 554.23046875 C228.93503787 554.22927018 230.54195145 554.22882521 232.14886475 554.2290802 C235.49007668 554.22753209 238.83117894 554.21937762 242.17236328 554.20581055 C246.38888598 554.18887672 250.60528966 554.18508931 254.82184219 554.1856184 C285.86943001 554.50120783 285.86943001 554.50120783 316.75 551.8125 C317.60722656 551.68649414 318.46445312 551.56048828 319.34765625 551.43066406 C337.27608055 548.52891539 353.23131104 540.80891207 367 529 C368.06245359 528.1666075 369.12494675 527.33326544 370.1875 526.5 C386.3708282 512.11481938 399.73965419 488.35006156 404 467 C404.09582778 464.8465069 404.13490888 462.69026976 404.14044189 460.53465271 C404.14341302 459.88718883 404.14638414 459.23972495 404.1494453 458.57264096 C404.15811172 456.40445258 404.15963888 454.23631955 404.16113281 452.06811523 C404.16576297 450.51216515 404.1707879 448.95621619 404.17617798 447.40026855 C404.18929737 443.17002618 404.19574771 438.93979968 404.20018864 434.70954013 C404.20312415 432.05936456 404.20723017 429.40919326 404.21169281 426.75901985 C404.22537542 418.4472132 404.23503457 410.13541641 404.2388947 401.82359928 C404.24335742 392.2687912 404.26081848 382.71412745 404.2898953 373.15936321 C404.31164132 365.75267454 404.32160605 358.34602604 404.32293582 350.93930584 C404.32397599 346.5271986 404.32971158 342.11522687 404.34775543 337.70315361 C405.83634255 301.85704723 405.83634255 301.85704723 392.04296875 270.03515625 C388.48282595 266.48862776 384.47537505 264.22065794 380 262 C379.28714844 261.62101562 378.57429688 261.24203125 377.83984375 260.8515625 C366.28442167 255.43050029 351.58017213 254.83675457 339 254 C338.97310784 252.52093108 338.95365379 251.04172517 338.9375 249.5625 C338.92589844 248.73878906 338.91429687 247.91507813 338.90234375 247.06640625 C339 245 339 245 340 244 C342.82979995 243.89986006 345.6352676 243.86560959 348.46557617 243.87301636 C349.36410655 243.87145637 350.26263693 243.86989638 351.1883955 243.86828911 C354.22326954 243.86427506 357.25809426 243.86747032 360.29296875 243.87060547 C362.45895416 243.86925161 364.62493934 243.86747176 366.79092407 243.86529541 C372.69157597 243.86071928 378.59221048 243.86251137 384.4928627 243.8656745 C390.65303852 243.86819717 396.8132128 243.86586082 402.97338867 243.86428833 C413.320478 243.86246636 423.66756019 243.86487365 434.01464844 243.86962891 C445.99626686 243.87507158 457.97786076 243.87330894 469.95947933 243.8678025 C480.22609828 243.86327214 490.49271208 243.86262044 500.7593317 243.86524117 C506.9001347 243.86680437 513.04092969 243.86699654 519.18173218 243.86370468 C524.95345231 243.86082709 530.7251504 243.8627996 536.49686813 243.86859894 C538.6217991 243.86992714 540.7467319 243.86953141 542.87166214 243.86733627 C545.75927487 243.86462711 548.64681575 243.86800301 551.53442383 243.87301636 C552.38683749 243.87078564 553.23925116 243.86855491 554.11749554 243.86625659 C559.88585018 243.88585018 559.88585018 243.88585018 561 245 C561.1328125 246.8125 561.1328125 246.8125 561.125 249 C561.12757813 249.721875 561.13015625 250.44375 561.1328125 251.1875 C561 253 561 253 560 254 C558.38070061 254.21510988 556.75340996 254.37083434 555.125 254.5 C554.14015625 254.5825 553.1553125 254.665 552.140625 254.75 C550.046875 254.91666667 547.953125 255.08333333 545.859375 255.25 C544.87453125 255.3325 543.8896875 255.415 542.875 255.5 C541.96492187 255.5721875 541.05484375 255.644375 540.1171875 255.71875 C538.01805518 255.77933347 538.01805518 255.77933347 537 257 C535.43969749 257.22419881 533.8765495 257.42863758 532.3125 257.625 C522.23565811 259.39862928 511.05100758 264.46027156 505 273 C495.8838256 287.34712209 495.55194538 302.99928342 495.56762695 319.41967773 C495.55850241 321.35388593 495.54808496 323.28808838 495.53649426 325.22228336 C495.50923236 330.35756861 495.49944464 335.49274156 495.49352264 340.6280899 C495.48522758 345.46374814 495.46084514 350.29927604 495.43786621 355.1348877 C495.3800812 369.23570198 495.34781823 383.33661154 495.3125 397.4375 C495.209375 428.973125 495.10625 460.50875 495 493 C560.34 493 625.68 493 693 493 C692.814375 447.1196875 692.814375 447.1196875 692.625 400.3125 C692.59100098 390.66813721 692.55700195 381.02377441 692.52197266 371.0871582 C692.48204685 362.41340778 692.48204685 362.41340778 692.43954468 353.7396698 C692.42073871 349.88774436 692.407351 346.03584174 692.39730835 342.18388367 C692.38428695 337.25859278 692.36182953 332.33342683 692.33276629 327.40820539 C692.32370912 325.60807194 692.31786557 323.80791849 692.31574559 322.0077635 C692.29145311 304.32751262 691.9468657 283.38725685 678.9609375 269.87890625 C665.18449857 256.97828904 647.99118713 255.39392271 629.91088867 254.23364258 C628 254 628 254 627 253 C626.8671875 251.1875 626.8671875 251.1875 626.875 249 C626.87242187 248.278125 626.86984375 247.55625 626.8671875 246.8125 C627 245 627 245 628 244 C630.81718144 243.89986684 633.60992089 243.86560879 636.4276123 243.87301636 C637.32205913 243.87145637 638.21650596 243.86989638 639.13805723 243.86828911 C642.15911181 243.86427509 645.18011685 243.86747031 648.20117188 243.87060547 C650.35730519 243.86925161 652.51343828 243.86747176 654.66957092 243.86529541 C660.5433642 243.86071929 666.41714001 243.86251137 672.29093361 243.8656745 C678.42308221 243.86819718 684.55522927 243.86586082 690.68737793 243.86428833 C700.98738882 243.86246636 711.28739254 243.86487365 721.58740234 243.86962891 C733.5144869 243.87507158 745.44155437 243.87330894 757.36863852 243.8678025 C767.58854872 243.86327214 777.80845377 243.86262045 788.02836466 243.86524117 C794.14122199 243.86680437 800.25407128 243.86699655 806.3669281 243.86370468 C812.11238344 243.86082708 817.85781664 243.86279961 823.60326958 243.86859894 C825.71852519 243.86992713 827.83378266 243.86953142 829.94903755 243.86733627 C832.82351322 243.86462709 835.6979167 243.86800304 838.5723877 243.87301636 C839.42091041 243.87078564 840.26943313 243.86855491 841.14366865 243.86625659 C846.88585018 243.88585018 846.88585018 243.88585018 848 245 C848.1328125 246.8125 848.1328125 246.8125 848.125 249 C848.12757813 249.721875 848.13015625 250.44375 848.1328125 251.1875 C848 253 848 253 847 254 C845.61732106 254.17915296 844.22694813 254.29973539 842.8359375 254.39453125 C825.76810293 255.69403212 806.821359 257.42010484 794.55859375 270.91796875 C787.67991714 280.10677735 785.52649279 289.87527197 784 301 C783.82669788 302.22318089 783.65339577 303.44636179 783.47484207 304.70660877 C782.6821698 311.99380055 782.8550938 319.33083406 782.85955811 326.65129089 C782.85697155 328.35104718 782.85395758 330.05080287 782.8505547 331.75055772 C782.84251519 336.40800469 782.84069683 341.06543622 782.83995724 345.7228893 C782.83810128 350.75183292 782.83055108 355.78076863 782.82382202 360.80970764 C782.81025839 371.80203574 782.80421664 382.79436017 782.79981136 393.78669524 C782.79704479 400.65799712 782.79280661 407.5292976 782.78830719 414.40059853 C782.77611555 433.44573344 782.76581703 452.49086724 782.7624321 471.53600597 C782.76210275 473.36336688 782.76210275 473.36336688 782.76176675 475.22764416 C782.76154847 476.44871963 782.76133019 477.66979509 782.7611053 478.92787284 C782.76066184 481.40202916 782.76021528 483.87618548 782.75976562 486.3503418 C782.75943348 488.19122306 782.75943348 488.19122306 782.75909463 490.06929383 C782.75515102 509.93197854 782.73770989 529.79462646 782.7144061 549.65729698 C782.69064336 570.07701367 782.67822796 590.49671196 782.67706418 610.91644269 C782.67615002 622.37028686 782.67046348 633.82408313 782.65224457 645.27791405 C782.6367768 655.0362543 782.63176215 664.79453185 782.63998267 674.55288204 C782.64386608 679.52369639 782.64307387 684.49438474 782.62892532 689.46518326 C780.89954304 724.47989669 780.89954304 724.47989669 791 757 C791.43054688 757.73089844 791.86109375 758.46179688 792.3046875 759.21484375 C798.64105639 768.82679317 809.22748023 772.44569119 820 775 C828.25659731 776.59404827 836.54732457 777.27781758 844.93481445 777.65893555 C849.89953297 777.89953297 849.89953297 777.89953297 851 779 C851.1328125 780.8125 851.1328125 780.8125 851.125 783 C851.12757813 783.721875 851.13015625 784.44375 851.1328125 785.1875 C851 787 851 787 850 788 C847.09219395 788.09795811 844.20813454 788.12991996 841.2999115 788.12025452 C839.91430561 788.12153615 839.91430561 788.12153615 838.50070769 788.12284368 C835.38057951 788.12450132 832.26050415 788.1189725 829.14038086 788.11352539 C826.9136607 788.11324355 824.68694044 788.11340118 822.46022034 788.1139679 C816.39434923 788.11425601 810.32849771 788.10835709 804.26263118 788.10139394 C797.93115636 788.09516266 791.59968115 788.09455678 785.26820374 788.09336853 C774.6344464 788.09060883 764.00069685 788.08435331 753.36694336 788.07543945 C742.41219112 788.06626604 731.45744085 788.05918486 720.50268555 788.05493164 C719.49048813 788.05453756 719.49048813 788.05453756 718.45784228 788.05413551 C715.07271283 788.05283051 711.68758336 788.05156679 708.30245388 788.05032361 C680.20163089 788.03995014 652.10081589 788.02225696 624 788 C623.875 780.25 623.875 780.25 625 778 C625.98355469 777.97421875 626.96710937 777.9484375 627.98046875 777.921875 C644.01727842 777.33576009 661.25118538 775.95482005 675 767 C675.680625 766.57203125 676.36125 766.1440625 677.0625 765.703125 C685.289556 759.67467879 688.34338491 749.12437351 690.45703125 739.59375 C692.24265382 727.77524093 692.16888045 715.92342607 692.20532227 704.00292969 C692.21491728 702.00118312 692.22492827 699.99943851 692.23532104 697.99769592 C692.26220048 692.59569887 692.28330115 687.19369323 692.30332303 681.79166698 C692.32528804 676.134228 692.35262497 670.47681497 692.37937927 664.81939697 C692.42916469 654.12064713 692.47415564 643.42188277 692.51740164 632.72310472 C692.57616017 618.25567964 692.64237046 603.78828877 692.70815182 589.32089424 C692.81150496 566.54728592 692.90494126 543.77364795 693 521 C627.33 521 561.66 521 494 521 C494.09073716 556.5674413 494.09073716 556.5674413 494.20898438 592.13476562 C494.26334794 606.65143683 494.31476604 621.16807363 494.34643555 635.68481445 C494.36952041 646.26008148 494.40303408 656.83525723 494.44870156 667.41045171 C494.47249324 673.00194672 494.49131358 678.59335212 494.49761391 684.18489647 C494.50372904 689.46511759 494.52395606 694.74510985 494.55427551 700.02524567 C494.56295405 701.94663964 494.56679993 703.86806366 494.56500816 705.78947639 C494.55867291 715.73220295 494.97785018 725.45524433 496.33952332 735.31367493 C496.51358608 736.5941413 496.51358608 736.5941413 496.69116527 737.90047568 C498.36993194 748.93409966 502.4706903 760.04285693 511.6875 766.875 C525.02117872 775.31504032 540.86681098 777.16110217 556.32446289 777.7097168 C561.91093633 777.91093633 561.91093633 777.91093633 563 779 C563 781.97 563 784.94 563 788 C488.42 788 413.84 788 337 788 C337 779 337 779 338 778 C340.52352466 777.83641017 343.03628446 777.72068165 345.5625 777.625 C363.7378918 776.71046654 381.12328076 773.37082532 394.6875 760.4375 C404.27747115 747.99645635 404.29732144 730.46581971 404.31884766 715.57104492 C404.32817092 714.07160415 404.33834305 712.57216845 404.34928894 711.07273865 C404.37633317 707.04472199 404.39166142 703.01673978 404.40471697 698.98865676 C404.42046085 694.76325691 404.44721449 690.53792629 404.4727478 686.31257629 C404.51933794 678.33027648 404.55617701 670.34796336 404.58942068 662.36559802 C404.62778264 653.26990056 404.67715542 644.17427297 404.72740483 635.07863462 C404.83043032 616.38580771 404.91978527 597.69293802 405 579 C403.71511801 579.00056958 403.71511801 579.00056958 402.40427881 579.00115067 C351.69193564 579.02350459 300.97959298 579.04067432 250.26724586 579.05106533 C244.18491846 579.05231611 238.10259106 579.05361043 232.02026367 579.05493164 C230.20385866 579.05532511 230.20385866 579.05532511 228.3507586 579.05572652 C208.71582504 579.06008373 189.08089439 579.06797156 169.44596256 579.0771528 C149.314787 579.08648791 129.18361297 579.09205531 109.05243534 579.09408849 C96.61970761 579.09546402 84.18698811 579.09981619 71.75426292 579.10791647 C63.24108633 579.11318218 54.72791403 579.1148047 46.21473593 579.11350138 C41.29523408 579.11285772 36.37574665 579.1138786 31.45624733 579.11920547 C26.96027646 579.12403851 22.46432985 579.12433929 17.96835791 579.12089889 C16.33443388 579.12047311 14.7005084 579.12176965 13.06658728 579.12488318 C10.86038868 579.12884567 8.65427988 579.12676434 6.44808292 579.12304783 C5.21816877 579.12342755 3.98825462 579.12380727 2.72107035 579.1241985 C0 579 0 579 -1 578 C-1.1328125 576.1875 -1.1328125 576.1875 -1.125 574 C-1.12757813 573.278125 -1.13015625 572.55625 -1.1328125 571.8125 C-1 570 -1 570 0 569 C3.1063946 568.83570489 6.20387546 568.72048583 9.3125 568.625 C38.35399382 567.66752742 38.35399382 567.66752742 63 554 C70.65429733 543.45935666 74.33056208 531.54934576 74.25726891 518.58427429 C74.26077498 517.78375883 74.26428105 516.98324336 74.26789337 516.15846986 C74.27716064 513.48928371 74.27229618 510.82031799 74.26742554 508.15112305 C74.27116417 506.21268856 74.27576654 504.27425557 74.28115618 502.33582497 C74.29337558 497.01882095 74.29312695 491.7018799 74.29076743 486.38486505 C74.29035899 480.64639332 74.30140115 474.9079417 74.31088257 469.16947937 C74.32748856 457.92937079 74.33299197 446.68928319 74.33410732 435.44916338 C74.33505814 426.30955071 74.33917013 417.16994495 74.34550858 408.03033447 C74.36025576 386.32332346 74.37255839 364.61631837 74.37151146 342.90930176 C74.3714803 342.21539743 74.37144914 341.52149311 74.37141704 340.80656138 C74.37125083 337.28979947 74.37105275 333.77303756 74.37084763 330.25627565 C74.37080774 329.55787248 74.37076785 328.85946931 74.37072675 328.13990241 C74.37064587 326.72756014 74.37056228 325.31521787 74.37047596 323.9028756 C74.36925118 301.9422226 74.38425144 279.98163141 74.41162109 258.02099609 C74.44238118 233.32998794 74.45952584 208.63902195 74.45769465 183.94799328 C74.45703136 170.8818347 74.46249669 157.81574583 74.48405075 144.74960327 C74.50228895 133.62234891 74.50658828 122.49519584 74.4930319 111.36793298 C74.48651519 105.694947 74.48633821 100.02215519 74.5037384 94.34918785 C74.51953173 89.14638332 74.51654173 83.94392591 74.49917014 78.74112952 C74.49611396 76.86829397 74.49967992 74.99543211 74.51089029 73.12262762 C74.60308311 56.6152313 73.41541343 40.19063458 62.36328125 27.0546875 C48.21658608 12.87730535 22.72502626 11.64034347 3.98828125 11.17578125 C0 11 0 11 -1 10 C-1.23880597 2.47761194 -1.23880597 2.47761194 0 0 Z " fill="#F5F0E9" transform="translate(214,230)"/>
<path d="M0 0 C67.98 0 135.96 0 206 0 C206 0.33 206 0.66 206 1 C205.34330322 1.05945801 204.68660645 1.11891602 204.01000977 1.18017578 C162.62390464 5.07322993 123.44839488 17.67084252 90 43 C89.06285156 43.70769531 88.12570313 44.41539063 87.16015625 45.14453125 C82.05489882 49.13276779 77.22644253 53.4083801 72.4453125 57.77734375 C70.09848338 59.91048395 67.70965414 61.98632073 65.3125 64.0625 C61.15506678 67.77008879 57.51819003 71.68577505 54 76 C53.16597656 77.01964844 52.33195312 78.03929688 51.47265625 79.08984375 C21.99399613 115.60622565 5.57589409 157.4873824 1 204 C0.67 204 0.34 204 0 204 C0 136.68 0 69.36 0 0 Z " fill="#FDFCFD" transform="translate(0,0)"/>
<path d="M0 0 C0.33 0 0.66 0 1 0 C1.08636719 1.18851563 1.17273438 2.37703125 1.26171875 3.6015625 C5.51008861 55.81866563 29.09901648 103.3228059 65 141 C65.72574219 141.77859375 66.45148438 142.5571875 67.19921875 143.359375 C102.70646573 180.37617222 154.78633258 199.97031771 205 204 C205 204.33 205 204.66 205 205 C137.35 205 69.7 205 0 205 C0 137.35 0 69.7 0 0 Z " fill="#FCFCFC" transform="translate(0,1049)"/>
<path d="M0 0 C69.96 0 139.92 0 212 0 C212 67.98 212 135.96 212 206 C211.67 206 211.34 206 211 206 C210.93530518 205.26177002 210.87061035 204.52354004 210.80395508 203.76293945 C206.9187507 160.7388865 193.62443928 121.46169594 167 87 C166.41347656 86.22140625 165.82695313 85.4428125 165.22265625 84.640625 C152.60723293 68.31792083 137.65504563 54.12276741 121 42 C120.45988281 41.60345215 119.91976563 41.2069043 119.36328125 40.79833984 C88.37487728 18.32070596 51.08996984 4.89528892 13 2 C11.67050883 1.8900954 10.34107999 1.77943387 9.01171875 1.66796875 C6.00869172 1.42604928 3.00593966 1.2018122 0 1 C0 0.67 0 0.34 0 0 Z " fill="#FCFCFC" transform="translate(1042,0)"/>
<path d="M0 0 C0.33 0 0.66 0 1 0 C1 67.65 1 135.3 1 205 C-66.65 205 -134.3 205 -204 205 C-204 204.67 -204 204.34 -204 204 C-203.13947021 203.89977539 -202.27894043 203.79955078 -201.39233398 203.69628906 C-198.12018488 203.30980958 -194.84953037 202.91338765 -191.5793457 202.51074219 C-190.17876569 202.34023957 -188.77773124 202.173419 -187.3762207 202.01074219 C-149.34375997 197.5829602 -111.51087329 181.40691211 -82 157 C-80.92583586 156.13014089 -79.85161597 155.26035063 -78.77734375 154.390625 C-66.97302507 144.72230914 -56.33954493 134.08238526 -47 122 C-46.28585937 121.1028125 -45.57171875 120.205625 -44.8359375 119.28125 C-38.12721744 110.65236624 -32.50115131 101.4305451 -27 92 C-26.62456055 91.36191406 -26.24912109 90.72382812 -25.86230469 90.06640625 C-19.99216346 79.98472325 -15.80578589 69.40000233 -11.87548828 58.43310547 C-11.11263473 56.31302781 -10.32506272 54.20476523 -9.52734375 52.09765625 C-3.49541393 35.40378319 -1.54389899 17.59232266 0 0 Z " fill="#FCFCFC" transform="translate(1253,1049)"/>
<path d="M0 0 C16.83 0 33.66 0 51 0 C50 2 50 2 48.26422119 2.61790466 C45.72490665 3.04642298 43.34849081 3.11977789 40.77246094 3.11352539 C39.73168396 3.11344986 38.69090698 3.11337433 37.61859131 3.11329651 C36.50179993 3.10813522 35.38500854 3.10297394 34.234375 3.09765625 C33.08584045 3.0962413 31.93730591 3.09482635 30.75396729 3.09336853 C27.08595169 3.08777143 23.41799715 3.07521944 19.75 3.0625 C17.26302171 3.05748463 14.77604247 3.05292178 12.2890625 3.04882812 C6.1926875 3.03780295 0.09634811 3.02106769 -6 3 C-6 2.67 -6 2.34 -6 2 C-4.02 1.67 -2.04 1.34 0 1 C0 0.67 0 0.34 0 0 Z " fill="#D5D2CB" transform="translate(441,785)"/>
<path d="M0 0 C8.25 0 16.5 0 25 0 C25 0.33 25 0.66 25 1 C15.76 1.99 6.52 2.98 -3 4 C-2.67 3.34 -2.34 2.68 -2 2 C-1.34 2 -0.68 2 0 2 C0 1.34 0 0.68 0 0 Z " fill="#E1E1DF" transform="translate(181,0)"/>
<path d="M0 0 C-0.33 0.99 -0.66 1.98 -1 3 C-8.59 3 -16.18 3 -24 3 C-24 2.67 -24 2.34 -24 2 C-21.12543208 1.66252452 -18.25043941 1.32989537 -15.375 1 C-14.16263672 0.85691406 -14.16263672 0.85691406 -12.92578125 0.7109375 C-8.59026261 0.21746383 -4.37262689 -0.11320717 0 0 Z " fill="#CCCCCC" transform="translate(1073,1251)"/>
<path d="M0 0 C0.99 0.33 1.98 0.66 3 1 C-0.32850747 4.59478807 -3.98971331 7.22364768 -8 10 C-8.66 9.67 -9.32 9.34 -10 9 C-8.89902432 7.87187697 -7.79408444 6.74762189 -6.6875 5.625 C-6.07261719 4.99851562 -5.45773437 4.37203125 -4.82421875 3.7265625 C-3 2 -3 2 0 0 Z " fill="#151516" transform="translate(1017,493)"/>
<path d="M0 0 C4.13621084 3.3810038 7.81316569 6.66590534 11 11 C8 11 8 11 5.73828125 9.03125 C4.93777344 8.1959375 4.13726563 7.360625 3.3125 6.5 C2.50425781 5.6646875 1.69601562 4.829375 0.86328125 3.96875 C0.24839844 3.3190625 -0.36648438 2.669375 -1 2 C-0.67 1.34 -0.34 0.68 0 0 Z " fill="#EFEEEF" transform="translate(1185,57)"/>
<path d="M0 0 C0.99 0.33 1.98 0.66 3 1 C1.0884175 2.79736845 -0.82886184 4.58789474 -2.75 6.375 C-3.55824219 7.13683594 -3.55824219 7.13683594 -4.3828125 7.9140625 C-7.09097827 10.4240698 -9.55080159 12.61027443 -13 14 C-8.88380164 9.08064098 -4.59589638 4.47352044 0 0 Z " fill="#E3E1E4" transform="translate(1196,1183)"/>
<path d="M0 0 C0.33 0 0.66 0 1 0 C1.66 6.6 2.32 13.2 3 20 C-0.33608336 14.99587497 -1.49071019 8.84961962 -0.625 2.875 C-0.41875 1.92625 -0.2125 0.9775 0 0 Z " fill="#D1CFCA" transform="translate(996,954)"/>
<path d="M0 0 C0.66 0.33 1.32 0.66 2 1 C0.90033225 2.29549899 -0.20491801 3.58626071 -1.3125 4.875 C-1.92738281 5.59429687 -2.54226562 6.31359375 -3.17578125 7.0546875 C-5 9 -5 9 -8 11 C-8 8 -8 8 -6.25 5.95703125 C-5.5075 5.24933594 -4.765 4.54164062 -4 3.8125 C-2.88625 2.73935547 -2.88625 2.73935547 -1.75 1.64453125 C-1.1725 1.10183594 -0.595 0.55914062 0 0 Z " fill="#141515" transform="translate(77,52)"/>
<path d="M0 0 C2.31 0.33 4.62 0.66 7 1 C3.99382731 4.00617269 1.17618402 3.59585316 -3 4 C-2.67 3.34 -2.34 2.68 -2 2 C-1.34 2 -0.68 2 0 2 C0 1.34 0 0.68 0 0 Z " fill="#EEEEEE" transform="translate(181,0)"/>
<path d="M0 0 C3.125 -0.1875 3.125 -0.1875 6 0 C5.67 0.99 5.34 1.98 5 3 C2.69 3 0.38 3 -2 3 C-1.34 2.01 -0.68 1.02 0 0 Z " fill="#DFDEDE" transform="translate(1067,1251)"/>
<path d="M0 0 C0.66 0.33 1.32 0.66 2 1 C2 2.65 2 4.3 2 6 C1.01 6.33 0.02 6.66 -1 7 C-1.33 7.66 -1.66 8.32 -2 9 C-1.51421457 5.87709365 -1.0013988 3.00419641 0 0 Z " fill="#2D2C2B" transform="translate(714,510)"/>
<path d="M0 0 C0.33 0 0.66 0 1 0 C1 2.97 1 5.94 1 9 C0.34 9 -0.32 9 -1 9 C-1.33 6.69 -1.66 4.38 -2 2 C-1.34 2 -0.68 2 0 2 C0 1.34 0 0.68 0 0 Z " fill="#EBECEC" transform="translate(1253,180)"/>
</svg>
