<?xml version="1.0" encoding="UTF-8"?>
<svg version="1.1" xmlns="http://www.w3.org/2000/svg" width="1254" height="1254">
<path d="M0 0 C1.53811255 -0.00239723 3.07622394 -0.00566712 4.61433303 -0.0097166 C8.80587351 -0.01825887 12.99732335 -0.01454288 17.18886502 -0.00866088 C21.76240333 -0.00446355 26.33592591 -0.01190773 30.90946031 -0.01781338 C38.91378262 -0.02655157 46.91807935 -0.02789599 54.92240524 -0.02431011 C66.82554338 -0.01899173 78.72865685 -0.02510982 90.6317923 -0.03339304 C113.12982122 -0.04861919 135.62783887 -0.05033955 158.12587187 -0.04787002 C175.5008611 -0.04603613 192.87584665 -0.04779898 210.25083542 -0.05209446 C212.7486197 -0.05269686 215.24640398 -0.05329806 217.74418826 -0.05389806 C221.50828086 -0.05480533 225.27237345 -0.055714 229.03646604 -0.05663041 C264.02513484 -0.06505787 299.01380225 -0.06939706 334.00247192 -0.06522369 C335.32099714 -0.06506732 336.63952235 -0.06491094 337.99800287 -0.06474983 C344.68054667 -0.06394824 351.36309045 -0.06309916 358.04563424 -0.06223653 C358.7090672 -0.06215102 359.37250017 -0.06206551 360.05603716 -0.06197741 C365.56749908 -0.06126675 365.56749908 -0.06126675 368.10492468 -0.06093518 C410.53546459 -0.05540004 452.96598273 -0.06294138 495.39651871 -0.08170605 C542.33267861 -0.10243772 589.26882753 -0.11314805 636.20499253 -0.10913056 C641.21124029 -0.10873523 646.21748805 -0.10837368 651.22373581 -0.10803318 C652.45636595 -0.10794245 653.68899609 -0.10785172 654.95897866 -0.10775824 C673.55233807 -0.10659313 692.14568426 -0.11323395 710.73904037 -0.1238451 C731.88900511 -0.13590311 753.03894075 -0.13744908 774.18890592 -0.12505493 C786.01782912 -0.11843293 797.8466827 -0.12004223 809.6756003 -0.13364345 C817.58663159 -0.14190425 825.49761087 -0.13916924 833.40863796 -0.12766818 C837.90957185 -0.12142797 842.41037018 -0.1197688 846.9112961 -0.13153151 C868.78682079 -0.18484735 890.13148925 0.11170644 911.31741714 6.31697559 C912.34882828 6.61442677 913.38023941 6.91187794 914.44290543 7.21834278 C967.373618 23.05815803 1009.70570577 58.95272168 1036.31668472 107.01057911 C1043.38728744 120.28380711 1048.50106697 134.43344118 1052.37991714 148.94197559 C1052.60646988 149.78204151 1052.83302261 150.62210743 1053.06644058 151.48762989 C1053.7956385 154.39701992 1054.40474049 157.31548403 1055.00491714 160.25447559 C1055.258524 161.47754518 1055.51213086 162.70061476 1055.77342278 163.96074706 C1058.84751188 180.43495218 1058.43345439 197.09415343 1058.39652117 213.7804166 C1058.38975491 218.35098494 1058.40050554 222.92151997 1058.40891701 227.49208099 C1058.4212416 235.48665385 1058.42251461 243.48116798 1058.41636658 251.47574711 C1058.40724838 263.36454907 1058.41532931 275.25329703 1058.42665782 287.14209486 C1058.44629749 308.38111808 1058.44867729 329.62011687 1058.44346262 350.85914701 C1058.43890075 369.44919183 1058.43951047 388.03922699 1058.44530296 406.62927151 C1058.44605984 409.12547866 1058.44681582 411.62168581 1058.44757091 414.11789295 C1058.44871614 417.87972911 1058.44986602 421.64156527 1058.45103015 425.40340142 C1058.46173119 460.36599364 1058.46646451 495.32858264 1058.45855999 530.29117584 C1058.45811423 532.26701528 1058.45811423 532.26701528 1058.45765946 534.28277067 C1058.45613107 540.95855014 1058.45454037 547.63432959 1058.45291757 554.31010904 C1058.45275654 554.97285681 1058.45259552 555.63560457 1058.45242961 556.3184356 C1058.45112239 561.69484001 1058.45112239 561.69484001 1058.45046843 564.35899637 C1058.44007918 606.7423847 1058.44784201 649.12573149 1058.47146988 691.50911427 C1058.49757116 738.40615006 1058.51038571 785.30316436 1058.50328213 832.20020801 C1058.5025661 837.20367229 1058.50189171 842.20713657 1058.50124168 847.21060085 C1058.50107187 848.4425218 1058.50090207 849.67444275 1058.50072711 850.94369463 C1058.4984271 869.51493042 1058.50638691 888.08614365 1058.51953316 906.65737438 C1058.5344633 927.78593369 1058.53526229 948.91444026 1058.51746225 970.04299846 C1058.50791941 981.85556217 1058.50929281 993.66800277 1058.52669694 1005.4805582 C1058.53722545 1013.38568682 1058.53303142 1021.29072214 1058.5172169 1029.19584165 C1058.50862753 1033.69009819 1058.50605518 1038.18411442 1058.52148622 1042.67835816 C1058.71351061 1102.82375685 1040.76053479 1155.15386197 998.12991714 1198.44197559 C971.94296263 1224.48122545 937.72328295 1242.35199228 901.81741714 1250.50447559 C901.15411392 1250.65561817 900.4908107 1250.80676075 899.80740738 1250.96248341 C887.30814508 1253.62234804 875.01347613 1254.55090153 862.25592995 1254.50895119 C860.72014839 1254.5113471 859.18436799 1254.51461616 857.64858991 1254.51866779 C853.45419746 1254.52722827 849.25989534 1254.5234863 845.06550166 1254.51761206 C840.49234829 1254.51342143 835.91921079 1254.52085518 831.34606135 1254.52676457 C823.33931357 1254.53550992 815.33259137 1254.53684461 807.32584 1254.5332613 C795.41906318 1254.52794669 783.51231105 1254.53405726 771.60553691 1254.54234423 C749.10069651 1254.55757699 726.59586737 1254.55929002 704.09102289 1254.5568212 C686.710265 1254.55498777 669.32951079 1254.55674921 651.94875336 1254.56104565 C649.45069536 1254.56164805 646.95263736 1254.56224925 644.45457936 1254.56284925 C640.69011898 1254.56375652 636.92565861 1254.56466518 633.16119823 1254.5655816 C598.1646737 1254.57401017 563.16815055 1254.57834751 528.17162514 1254.57417488 C526.85256789 1254.5740185 525.53351065 1254.57386213 524.17448197 1254.57370101 C517.48915652 1254.57289942 510.80383108 1254.57205034 504.11850564 1254.57118771 C503.12293309 1254.57105945 503.12293309 1254.57105945 502.10724795 1254.57092859 C496.59330333 1254.57021792 496.59330333 1254.57021792 494.05493111 1254.56988637 C451.61100513 1254.56435184 409.16710091 1254.57189034 366.72317886 1254.59065723 C319.77751142 1254.611389 272.83185497 1254.62209915 225.88618243 1254.61808175 C220.87878013 1254.61768641 215.87137783 1254.61732486 210.86397552 1254.61698437 C209.01459081 1254.61684827 209.01459081 1254.61684827 207.12784479 1254.61670942 C188.52919917 1254.61554427 169.93056676 1254.62218558 151.33192444 1254.63279629 C130.17459166 1254.64485454 109.01728797 1254.64640006 87.85995476 1254.63400612 C76.02659825 1254.62738407 64.19331132 1254.62899351 52.3599604 1254.64259463 C44.44590309 1254.65085543 36.53189777 1254.64812042 28.61784467 1254.63661937 C24.1151472 1254.63037911 19.61258525 1254.6287201 15.10989575 1254.6404827 C-6.90823666 1254.69411524 -28.30742577 1254.3523415 -49.62008286 1248.06697559 C-50.66220932 1247.76654346 -51.70433578 1247.46611134 -52.77804184 1247.1565752 C-62.5276326 1244.25595069 -71.78584049 1240.55030147 -80.99508286 1236.25447559 C-81.67828598 1235.94429493 -82.36148911 1235.63411427 -83.06539536 1235.31453419 C-98.71208414 1228.17459971 -113.06945132 1218.58511734 -125.99508286 1207.25447559 C-126.82008286 1206.53904591 -127.64508286 1205.82361622 -128.49508286 1205.08650684 C-144.20473066 1191.21783339 -156.9502948 1176.02141799 -167.99508286 1158.25447559 C-168.61165756 1157.26616749 -168.61165756 1157.26616749 -169.24068832 1156.25789356 C-187.16582918 1127.03592438 -196.35777968 1092.69100179 -196.25235176 1058.51666164 C-196.25505191 1056.98209041 -196.25862354 1055.44752051 -196.26297623 1053.91295308 C-196.2723608 1049.72189601 -196.26945764 1045.53092671 -196.26442069 1041.33986555 C-196.2611364 1036.77026526 -196.26945121 1032.20068303 -196.27623904 1027.63108861 C-196.2865208 1019.63046348 -196.289386 1011.62986254 -196.28732681 1003.62923145 C-196.28427206 991.73134155 -196.29261134 979.83347835 -196.30307606 967.93559364 C-196.32240414 945.44627123 -196.32804386 922.95695794 -196.32919018 900.4676282 C-196.33010983 883.09643918 -196.33422943 865.72525375 -196.34059143 848.3540659 C-196.34238657 843.35085881 -196.3441662 838.34765172 -196.34594119 833.34444463 C-196.34638328 832.10056906 -196.34682538 830.85669349 -196.34728087 829.57512472 C-196.35958714 794.59289424 -196.36748222 759.61066501 -196.36659431 724.62843227 C-196.36656316 723.3098759 -196.366532 721.99131953 -196.3664999 720.63280691 C-196.36635314 714.61993241 -196.3661768 708.60705792 -196.36599213 702.59418342 C-196.36590988 699.91306931 -196.36582959 697.23195519 -196.3657495 694.55084107 C-196.36570871 693.20889691 -196.36566667 691.86695275 -196.36562338 690.52500859 C-196.36426344 648.10815651 -196.37889005 605.69133784 -196.40670395 563.27449512 C-196.43745469 516.35369284 -196.45463514 469.43290831 -196.4527775 422.51209486 C-196.45262825 417.50574422 -196.45253083 412.49939358 -196.45246887 407.49304295 C-196.45244556 406.2603895 -196.45242225 405.02773605 -196.45239824 403.75772946 C-196.45233677 383.94780511 -196.46509167 364.13790905 -196.4823334 344.3279931 C-196.49931322 324.40648897 -196.50124536 304.48502609 -196.48811476 284.56351872 C-196.48074112 272.73986917 -196.48433603 260.91634518 -196.50399944 249.09270902 C-196.51604287 241.18001796 -196.51336011 233.26741736 -196.49905844 225.35473037 C-196.49133211 220.85606269 -196.48963652 216.35763707 -196.50597315 211.85898693 C-196.71002059 151.62792009 -178.77098295 99.37568449 -136.12008286 56.06697559 C-125.24793168 45.2561476 -112.9647814 36.37725072 -99.99508286 28.25447559 C-99.09596176 27.68648243 -99.09596176 27.68648243 -98.17867661 27.10701466 C-81.96159748 17.01074455 -63.51524765 9.81141088 -44.99508286 5.25447559 C-44.03602036 4.98248341 -43.07695786 4.71049122 -42.08883286 4.43025684 C-28.32517245 0.63785041 -14.20717996 -0.04690032 0 0 Z " fill="#272727" transform="translate(195.9950828552246,-0.25447559356689453)"/>
<path d="M0 0 C0.99352539 -0.00322445 1.98705078 -0.00644889 3.010683 -0.00977105 C4.11532618 -0.00822245 5.21996937 -0.00667385 6.35808659 -0.00507832 C7.5213423 -0.00734387 8.68459802 -0.00960943 9.88310391 -0.01194364 C13.12644242 -0.0172019 16.36974632 -0.01792461 19.61308777 -0.01674926 C23.10530603 -0.01654599 26.59751588 -0.02205691 30.08973026 -0.02680683 C36.93699073 -0.03513001 43.78424259 -0.03786242 50.63150769 -0.03841921 C56.19449315 -0.03889358 61.75747576 -0.04094434 67.32046032 -0.04411983 C83.07561788 -0.05293091 98.83076862 -0.0575385 114.58592867 -0.05678936 C115.43613156 -0.0567494 116.28633445 -0.05670945 117.16230106 -0.05666828 C118.43915369 -0.05660696 118.43915369 -0.05660696 119.74180133 -0.0565444 C133.54319906 -0.05613779 147.34456953 -0.06570999 161.14595937 -0.07980665 C175.30053796 -0.09415054 189.45510324 -0.10107793 203.6096893 -0.10021287 C211.56308967 -0.09988021 219.51646146 -0.10265721 227.46985531 -0.11339092 C234.24074594 -0.12246984 241.01159505 -0.12469278 247.78248911 -0.1178815 C251.23990285 -0.11460303 254.69723678 -0.11460701 258.15464306 -0.12323475 C261.89587011 -0.13088194 265.63688409 -0.12635846 269.37810612 -0.11860371 C270.48051858 -0.12374727 271.58293104 -0.12889083 272.71874994 -0.13419026 C274.21294965 -0.12729207 274.21294965 -0.12729207 275.73733521 -0.12025452 C276.60179604 -0.12047188 277.46625688 -0.12068925 278.35691351 -0.12091321 C280.43158817 0.12863445 280.43158817 0.12863445 282.43158817 2.12863445 C283.00653802 9.37300257 283.00653802 9.37300257 281.21576786 11.72653484 C278.87603054 13.56522004 277.47758026 13.51093701 274.52143192 13.53488445 C273.54021366 13.55454266 272.5589954 13.57420086 271.54804325 13.59445477 C270.49898808 13.60573406 269.4499329 13.61701336 268.36908817 13.62863445 C247.92505009 14.18543429 226.28036044 16.69382356 210.68158817 31.44113445 C203.24212398 39.39063284 199.86383254 47.27416268 197.89643192 57.8591032 C197.43158817 60.12863445 197.43158817 60.12863445 196.43158817 63.12863445 C194.84842426 74.13902928 195.28586055 85.41981554 195.29114628 96.51326275 C195.2885595 98.69067279 195.28554547 100.86808236 195.28214288 103.04549128 C195.27410645 109.00927111 195.27228519 114.97303888 195.27154541 120.93682349 C195.269689 127.37675047 195.26213876 133.81667127 195.25541019 140.25659466 C195.24087723 155.06243949 195.23530359 169.86828301 195.23071825 184.67413369 C195.22837813 191.99884838 195.22477504 199.3235623 195.22102287 206.64827638 C195.20819136 231.74727033 195.19747166 256.84626385 195.19402027 281.945261 C195.19379864 283.51916211 195.19357686 285.09306322 195.19335492 286.66696433 C195.19313428 288.24454578 195.1929138 289.82212723 195.19269347 291.39970869 C195.19225093 294.5643148 195.19180381 297.72892092 195.1913538 300.89352703 C195.19124441 301.67815824 195.19113502 302.46278945 195.19102231 303.27119736 C195.18739326 328.70168574 195.17147688 354.13214559 195.14816343 379.56262304 C195.12352988 406.48254586 195.10984581 433.40245239 195.10865235 460.3223868 C195.10848091 463.28132221 195.10826549 466.2402576 195.10801792 469.199193 C195.10796215 469.92770572 195.10790638 470.65621843 195.10784893 471.40680729 C195.10670159 483.09559499 195.09570685 494.78435324 195.08113087 506.47313102 C195.06671629 518.2364599 195.06380788 529.9997481 195.07157084 541.76308345 C195.07546527 548.12716772 195.07460688 554.49115354 195.0605135 560.85522556 C195.04770225 566.6939872 195.04903504 572.53257715 195.06110421 578.37133879 C195.06304875 580.47093773 195.06004111 582.57054913 195.05125985 584.6701306 C194.20945378 613.95894787 194.20945378 613.95894787 205.70502567 639.75363445 C212.94025893 645.51563017 221.37635511 648.13709838 230.43158817 649.12863445 C231.12867641 649.20940102 231.82576466 649.29016758 232.54397678 649.37338161 C238.64517798 650.04120825 244.65821698 650.2821899 250.7929163 650.28976727 C251.77673786 650.29473217 252.76055943 650.29969707 253.77419376 650.30481243 C257.00374929 650.31931753 260.23325552 650.32622064 263.46283817 650.33175945 C265.1380328 650.33600052 265.1380328 650.33600052 266.84706974 650.34032726 C272.77091548 650.35528137 278.69473716 650.3645316 284.61859989 650.36886883 C290.66029839 650.37431225 296.70176683 650.39826315 302.7433939 650.42684078 C307.4539533 650.44571639 312.16446038 650.45068604 316.87505436 650.4522047 C319.09761134 650.45518186 321.32016856 650.46303686 323.54268742 650.47638988 C366.21860028 650.71424813 403.80537779 643.45600241 435.48627567 613.12863445 C445.18180752 603.47790044 452.20782001 592.23132693 458.43158817 580.12863445 C458.91240849 579.20824383 459.3932288 578.2878532 459.88861942 577.33957195 C467.31250538 562.11471376 470.33187646 547.32228401 470.26801395 530.50876141 C470.28278273 528.63044457 470.30008811 526.75214627 470.31969547 524.87387371 C470.3647215 519.83469646 470.37331271 514.7960936 470.37360716 509.75673985 C470.37917532 504.44841095 470.41544549 499.14027424 470.44718266 493.83204937 C470.49573065 484.92658013 470.52082091 476.02128574 470.53119755 467.115695 C470.54339631 456.85828341 470.59098393 446.60150613 470.65791619 436.34431583 C470.72199901 426.42223938 470.76279523 416.50020049 470.79254627 406.57796574 C470.80541945 402.37937006 470.8259106 398.18091769 470.85270405 393.9823885 C470.88311667 389.03025658 470.89284377 384.0784798 470.88737774 379.12626171 C470.88850619 377.32204641 470.89632626 375.51781921 470.91178417 373.71366978 C471.06843757 354.33566291 466.22741264 338.41697909 457.43158817 321.12863445 C457.1660413 320.30234539 456.90049442 319.47605633 456.62690067 318.6247282 C453.07669433 311.21106201 440.83104082 306.87128872 433.43158817 304.12863445 C420.66886248 299.95648349 407.76310811 299.01429487 394.43158817 298.12863445 C394.43158817 294.16863445 394.43158817 290.20863445 394.43158817 286.12863445 C427.40963446 286.10584485 460.38767849 286.08813668 493.36573085 286.07756912 C497.25495218 286.07631835 501.1441735 286.07502403 505.03339481 286.07370281 C505.80770173 286.0734405 506.58200864 286.07317819 507.37977941 286.07290793 C519.93386738 286.06855107 532.48795079 286.06066343 545.04203605 286.05148166 C557.91401184 286.04214558 570.78598525 286.03657894 583.65796429 286.03454596 C591.6071121 286.03317064 599.55624704 286.02881955 607.50539089 286.02071799 C613.59043214 286.01483043 619.6754622 286.01417537 625.76050663 286.01552677 C628.26438889 286.01525024 630.76827162 286.01324245 633.27215099 286.00942898 C636.67434977 286.00449881 640.07649214 286.00563365 643.47869205 286.00837994 C644.48353482 286.00546709 645.48837759 286.00255425 646.52367014 285.99955314 C647.42786064 286.00154419 648.33205114 286.00353524 649.26364136 286.00558662 C650.05004216 286.0052069 650.83644297 286.00482718 651.6466741 286.00443596 C653.43158817 286.12863445 653.43158817 286.12863445 654.43158817 287.12863445 C654.52982754 288.79292497 654.56132448 290.46145376 654.55658817 292.12863445 C654.5591663 293.03613445 654.56174442 293.94363445 654.56440067 294.87863445 C654.43158817 297.12863445 654.43158817 297.12863445 653.43158817 298.12863445 C644.91461721 299.69297606 636.0518682 299.22489068 627.43158817 299.12863445 C627.43158817 299.78863445 627.43158817 300.44863445 627.43158817 301.12863445 C626.34361942 301.34777508 625.25565067 301.5669157 624.13471317 301.79269695 C611.64969996 304.43334636 599.00672173 307.990921 590.43158817 318.12863445 C588.1897199 321.68868278 586.24341383 325.33340875 584.43158817 329.12863445 C583.77158817 329.12863445 583.11158817 329.12863445 582.43158817 329.12863445 C581.95245394 332.15125789 581.48372776 335.1749624 581.02799892 338.20121956 C580.66528241 340.58973828 580.29089189 342.97657332 579.89543438 345.35988998 C578.16545969 356.64165357 578.12403534 367.81549831 578.11274052 379.21042156 C578.10331304 381.43498406 578.09303156 383.65954307 578.08197308 385.88409805 C578.05488949 391.80045479 578.03937741 397.71678695 578.02639103 403.6331892 C578.01238066 409.20042927 577.98776271 414.76760362 577.96405888 420.33481121 C577.90099837 436.57854803 577.85480729 452.8223468 577.80658817 469.06613445 C577.68283817 505.38675945 577.55908817 541.70738445 577.43158817 579.12863445 C653.99158817 579.12863445 730.55158817 579.12863445 809.43158817 579.12863445 C809.30783817 524.55488445 809.30783817 524.55488445 809.18158817 468.87863445 C809.16579716 457.41854656 809.15000614 445.95845867 809.13373661 434.15109539 C809.10048999 423.81957352 809.10048999 423.81957352 809.0620203 413.48807049 C809.04511198 408.90974931 809.03915226 404.33155887 809.04004765 399.75320721 C809.04082549 393.89090335 809.0222905 388.02894299 808.99049902 382.1667285 C808.98206266 380.02925365 808.98008522 377.89173972 808.98576403 375.75425577 C809.03266469 355.52041959 807.60974001 334.02055725 794.40424442 317.6091032 C782.01239625 305.54031997 764.93905427 301.89830582 748.43158817 300.00363445 C746.29069252 299.75218859 744.1501932 299.49804481 742.01020145 299.23901653 C740.09016202 299.0074109 738.16909764 298.78434951 736.24799442 298.56173992 C733.43158817 298.12863445 733.43158817 298.12863445 732.43158817 297.12863445 C732.3333488 295.46434394 732.30185186 293.79581514 732.30658817 292.12863445 C732.30401005 291.22113445 732.30143192 290.31363445 732.29877567 289.37863445 C732.43158817 287.12863445 732.43158817 287.12863445 733.43158817 286.12863445 C734.80675892 286.03129825 736.18689573 286.00308034 737.56550694 286.00279331 C738.91041745 285.99888169 738.91041745 285.99888169 740.28249788 285.99489105 C741.27887663 285.99712177 742.27525538 285.99935249 743.30182743 286.00165081 C744.35144925 286.00009082 745.40107106 285.99853083 746.4824996 285.99692357 C750.0286941 285.99290862 753.57484641 285.99610512 757.1210413 285.99923992 C759.65155405 285.9978861 762.1820666 285.99610628 764.71257877 285.99392986 C770.88974102 285.98982938 777.06688743 285.99044888 783.24404991 285.9933425 C788.26213517 285.99559632 793.28021703 285.99590916 798.29830265 285.99481869 C799.01114628 285.99466545 799.7239899 285.99451222 800.45843485 285.99435434 C801.90633659 285.99403464 803.35423832 285.99371042 804.80214006 285.99338175 C818.39505868 285.9905268 831.98797057 285.99381423 845.58088809 285.99918212 C857.25687352 286.00365017 868.93284901 286.00287425 880.60883427 285.99826336 C894.15145802 285.99291787 907.69407587 285.99080149 921.23670053 285.99387562 C922.67942492 285.99419419 924.12214931 285.99450856 925.5648737 285.99481869 C926.27481433 285.99497296 926.98475497 285.99512724 927.71620896 285.99528619 C932.73116448 285.99615142 937.74611627 285.99468833 942.76107121 285.99233913 C949.50458932 285.9892498 956.24808567 285.9914335 962.9916029 285.99723339 C965.47452164 285.99856175 967.95744195 285.9981656 970.44036007 285.99597073 C973.81404486 285.99326218 977.18766811 285.99663671 980.56134892 286.00165081 C981.55772767 285.99942009 982.55410642 285.99718937 983.58067846 285.99489105 C984.47728548 285.99749879 985.37389249 286.00010654 986.29766941 286.00279331 C987.46734422 286.00303684 987.46734422 286.00303684 988.66064882 286.00328529 C990.43158817 286.12863445 990.43158817 286.12863445 991.43158817 287.12863445 C991.52982754 288.79292497 991.56132448 290.46145376 991.55658817 292.12863445 C991.5591663 293.03613445 991.56174442 293.94363445 991.56440067 294.87863445 C991.43158817 297.12863445 991.43158817 297.12863445 990.43158817 298.12863445 C988.98753365 298.30817975 987.53602448 298.42852333 986.08393192 298.5231657 C974.46400946 299.36922648 963.57241698 300.62642933 952.43158817 304.12863445 C951.73775028 304.3400407 951.04391239 304.55144695 950.32904911 304.76925945 C938.92399106 308.32461964 931.43769088 312.31868133 925.5519495 323.12546062 C916.07296692 341.57487006 914.97330617 362.46347193 915.05063725 382.82544231 C915.0471717 384.84262973 915.04240117 386.85981524 915.03645551 388.87699687 C915.02403925 394.36526944 915.03007275 399.85338364 915.03941417 405.34165645 C915.04624301 411.28172723 915.03570459 417.22177207 915.0274744 423.16183758 C915.01494273 434.10666996 915.01597555 445.05144856 915.02420881 455.99628374 C915.03177803 466.10891667 915.0337151 476.22153134 915.03014088 486.33416653 C915.02991172 487.00693058 915.02968257 487.67969464 915.02944647 488.37284548 C915.02851234 491.1043097 915.02755713 493.83577392 915.02656718 496.56723812 C915.01740647 522.14876152 915.02568503 547.73025321 915.04185787 573.31177171 C915.05609613 596.00578851 915.05481618 618.69975481 915.04047489 641.39377117 C915.02438876 666.93378342 915.0180531 692.47376768 915.02731168 718.01378429 C915.02827373 720.73943416 915.02921226 723.46508403 915.03014088 726.19073391 C915.03037811 726.86178165 915.03061534 727.53282938 915.03085976 728.2242119 C915.03426269 738.32826668 915.03029919 748.43230115 915.02270222 758.53635311 C915.01427021 770.03116485 915.01660323 781.52591516 915.03254445 793.0207199 C915.04040378 798.88006334 915.0435587 804.73930454 915.03359699 810.59864712 C915.02460124 815.97124439 915.02966276 821.34364545 915.04552965 826.71622513 C915.04885685 828.65066901 915.04723036 830.58512976 915.03990228 832.51956262 C914.98248498 848.94759916 916.91902034 864.03917178 922.18158817 879.69113445 C922.49096317 880.69209148 922.80033817 881.69304852 923.11908817 882.72433758 C926.32907695 892.41162515 931.58816889 898.80476963 940.52143192 903.7497282 C955.69389266 910.93882705 971.17941459 912.10757326 987.71991825 912.78781414 C993.22952768 913.02760421 993.22952768 913.02760421 995.43158817 914.12863445 C995.45846968 915.77438011 995.47792941 917.42024859 995.49408817 919.06613445 C995.50568974 919.98265789 995.5172913 920.89918133 995.52924442 921.8434782 C995.43158817 924.12863445 995.43158817 924.12863445 994.43158817 925.12863445 C993.00851653 925.22522617 991.58066559 925.25235287 990.15431976 925.25168228 C989.22574549 925.25367333 988.29717122 925.25566438 987.34045833 925.25771576 C985.79233923 925.2533465 985.79233923 925.2533465 984.21294498 925.24888897 C982.58232596 925.25017061 982.58232596 925.25017061 980.91876513 925.25147814 C977.24585843 925.25313615 973.57299658 925.24760633 969.90009403 925.24215984 C967.27929021 925.24187801 964.65848631 925.24203562 962.03768253 925.24260235 C956.37969777 925.24312777 950.72172451 925.23997908 945.06374264 925.23436451 C936.88316007 925.22625196 928.70258308 925.22363454 920.52199692 925.22237652 C907.25089072 925.22018561 893.97979065 925.21352448 880.70868778 925.20407391 C867.81383132 925.19490079 854.91897653 925.18781946 842.02411747 925.18356609 C841.22983937 925.18330337 840.43556127 925.18304065 839.61721414 925.18276996 C835.63272183 925.18146496 831.64822951 925.18020125 827.66373718 925.17895806 C794.58634971 925.16858424 761.50896976 925.15096488 728.43158817 925.12863445 C728.37763339 923.50399603 728.33881622 921.87884904 728.30658817 920.25363445 C728.28338505 919.34871258 728.26018192 918.4437907 728.23627567 917.51144695 C728.43158817 915.12863445 728.43158817 915.12863445 730.43158817 913.12863445 C733.08271122 912.78146648 733.08271122 912.78146648 736.44330692 912.63644695 C737.66896366 912.57376629 738.8946204 912.51108562 740.15741825 912.44650555 C741.46476933 912.38285809 742.7721204 912.31921062 744.11908817 912.25363445 C762.37159737 911.19139394 781.32745965 907.89658238 795.43158817 895.12863445 C813.97154699 872.13195476 808.74822876 833.69497201 808.80337358 806.05247974 C808.81552585 801.11604121 808.83935902 796.17965811 808.86199284 791.24325848 C808.90336813 781.8782939 808.93587801 772.51332364 808.96446699 763.14831209 C809.01542372 746.50692559 809.07928252 729.86559045 809.14980739 713.22427607 C809.17351284 707.54442778 809.1936329 701.86459157 809.20792305 696.18471146 C809.29235539 667.81604937 809.85257949 639.50005998 810.43158817 611.12863445 C732.88158817 611.12863445 655.33158817 611.12863445 575.43158817 611.12863445 C575.76158817 642.80863445 576.09158817 674.48863445 576.43158817 707.12863445 C576.8105606 767.25291083 576.8105606 767.25291083 576.90839481 790.43063641 C576.93690918 797.17432212 576.97224097 803.91793695 577.01504856 810.66154748 C577.03686854 814.1411447 577.05562767 817.62068179 577.0654974 821.10033512 C576.55103476 850.03012126 576.55103476 850.03012126 582.43158817 878.12863445 C582.75772099 879.10832195 583.0838538 880.08800945 583.41986942 881.09738445 C587.27557939 891.59127549 593.09286354 898.69215746 602.99408817 904.00363445 C617.59820819 910.70509212 632.81242505 912.12405126 648.67377567 912.7341032 C649.96154911 912.79017742 649.96154911 912.79017742 651.27533817 912.84738445 C652.43839481 912.89282391 652.43839481 912.89282391 653.62494755 912.93918133 C655.43158817 913.12863445 655.43158817 913.12863445 656.43158817 914.12863445 C656.43158817 917.75863445 656.43158817 921.38863445 656.43158817 925.12863445 C569.31158817 925.12863445 482.19158817 925.12863445 392.43158817 925.12863445 C392.43158817 921.16863445 392.43158817 917.20863445 392.43158817 913.12863445 C394.11123661 913.0306657 395.79088505 912.93269695 397.52143192 912.83175945 C421.80751253 911.46041634 421.80751253 911.46041634 444.43158817 903.12863445 C445.7851038 902.3725993 445.7851038 902.3725993 447.16596317 901.6012907 C458.3544328 894.93356759 463.79121197 887.6704785 467.43158817 875.12863445 C481.12367241 811.23224135 471.07254449 744.47458544 471.43158817 679.12863445 C314.02158817 679.12863445 156.61158817 679.12863445 -5.56841183 679.12863445 C-5.56841183 669.12863445 -5.56841183 669.12863445 -4.56841183 668.12863445 C-2.16560335 667.94591791 0.21620963 667.82233964 2.62299442 667.7341032 C4.14190596 667.66512824 5.66078529 667.59544103 7.17963505 667.52511883 C9.56153455 667.41932656 11.94325103 667.31801337 14.32587528 667.22995281 C28.44119688 666.69366321 42.34330292 665.13030788 54.93158817 658.19113445 C55.92835575 657.65649578 55.92835575 657.65649578 56.94526005 657.11105633 C58.77693877 656.12227401 60.60446232 655.1258047 62.43158817 654.12863445 C63.66908817 653.60076336 63.66908817 653.60076336 64.93158817 653.0622282 C72.48890269 649.5344974 75.33567418 640.38926833 78.43158817 633.12863445 C78.7559321 632.37508417 79.08027603 631.62153388 79.41444856 630.84514874 C83.85930212 618.97410562 82.71592501 605.31939549 82.69228458 592.86879253 C82.69530814 590.60858402 82.69919865 588.34837652 82.70387715 586.08817083 C82.71413947 579.90035203 82.71197981 573.71259128 82.70769656 567.52476776 C82.70548014 561.52934544 82.71264622 555.53393862 82.71945681 549.53852155 C82.7346698 535.76869762 82.73640467 521.99889214 82.73393378 508.22906157 C82.73209874 497.59354109 82.73386517 486.95802663 82.73815823 476.3225069 C82.73876064 474.79269173 82.73936183 473.26287655 82.73996183 471.73306138 C82.74086912 469.4275725 82.74177778 467.12208362 82.74269418 464.81659474 C82.75111965 443.39070906 82.7554622 421.96482563 82.75128746 400.53893852 C82.7510529 399.32821994 82.7510529 399.32821994 82.75081359 398.0930424 C82.75000785 394.00242154 82.74916208 389.91180068 82.74830029 385.82117983 C82.7481292 385.00881847 82.74795812 384.19645711 82.74778184 383.35947873 C82.74743519 381.7166883 82.74708666 380.07389787 82.74673626 378.43110744 C82.74137953 352.87152923 82.74930975 327.31198552 82.76776981 301.75241375 C82.78850204 273.01340316 82.79921022 244.27441393 82.79519433 215.53539544 C82.794799 212.46900006 82.79443745 209.40260468 82.79409695 206.3362093 C82.79396085 205.20373451 82.79396085 205.20373451 82.793822 204.04838145 C82.79265778 192.66902284 82.79929095 181.28968588 82.80990887 169.91033268 C82.82197729 156.96351929 82.8235009 144.01675345 82.8111187 131.06993934 C82.80508618 124.46749861 82.8041232 117.86513065 82.8161211 111.26269054 C82.82698831 105.21204646 82.82386635 99.1615727 82.80985942 93.11093656 C82.80721483 90.92868621 82.80957145 88.74642248 82.81759528 86.56418528 C82.88240529 67.61404405 82.31495391 47.43601862 69.49408817 32.1559782 C51.07119937 14.04711591 21.84843847 13.52932684 -2.20195675 13.27048016 C-4.56841183 13.12863445 -4.56841183 13.12863445 -5.56841183 12.12863445 C-5.66692354 10.29747562 -5.69813812 8.46243512 -5.69341183 6.62863445 C-5.69598995 5.62832195 -5.69856808 4.62800945 -5.70122433 3.59738445 C-5.47331245 -0.63909505 -3.79077846 0.00308958 0 0 Z " fill="#F4EFE8" transform="translate(132.5684118270874,164.87136554718018)"/>
<path d="M0 0 C19.8 0 39.6 0 60 0 C59.34 1.32 58.68 2.64 58 4 C36.55 4 15.1 4 -7 4 C-6.67 3.34 -6.34 2.68 -6 2 C-4.02 2 -2.04 2 0 2 C0 1.34 0 0.68 0 0 Z " fill="#D6D3CC" transform="translate(395,816)"/>
<path d="M0 0 C0.33 0 0.66 0 1 0 C1.01458252 0.80928955 1.02916504 1.6185791 1.04418945 2.45239258 C1.12020538 6.23949016 1.21055454 10.026026 1.3125 13.8125 C1.3306778 14.49317535 1.34885559 15.17385071 1.36758423 15.87515259 C1.63617668 25.2121545 2.28818624 34.32702585 4.15942383 43.5012207 C5.1878218 48.71826729 5.1878218 48.71826729 3 52 C0.36024698 45.43213885 -0.41495736 39.75912083 -0.29296875 32.71484375 C-0.28660149 31.30230064 -0.28660149 31.30230064 -0.28010559 29.86122131 C-0.26346216 26.88634282 -0.22583772 23.91216986 -0.1875 20.9375 C-0.1724346 18.9069109 -0.15874946 16.87631107 -0.14648438 14.84570312 C-0.11360578 9.89686819 -0.0619244 4.94855325 0 0 Z " fill="#B9B7B2" transform="translate(1046,985)"/>
</svg>
